<?xml version="1.0" standalone="no"?>
        <!DOCTYPE svg PUBLIC "-//W3C//DTD SVG 1.1//EN" 
        "http://www.w3.org/Graphics/SVG/1.1/DTD/svg11.dtd">  <svg xmlns="http://www.w3.org/2000/svg" xmlns:xlink="http://www.w3.org/1999/xlink" width="40" zoomAndPan="magnify" viewBox="0 0 30 30.000001" height="40" preserveAspectRatio="xMidYMid meet" version="1.0"><defs><clipPath id="id1"><path d="M 3.386719 8.003906 L 26.613281 8.003906 L 26.613281 17 L 3.386719 17 Z M 3.386719 8.003906 " clip-rule="nonzero"/></clipPath><clipPath id="id2"><path d="M 3.386719 16 L 26.613281 16 L 26.613281 24.695312 L 3.386719 24.695312 Z M 3.386719 16 " clip-rule="nonzero"/></clipPath></defs><g clip-path="url(#id1)"><path fill="rgb(93.328857%, 93.328857%, 93.328857%)" d="M 24.027344 8.003906 L 5.972656 8.003906 C 4.550781 8.003906 3.394531 9.152344 3.394531 10.570312 L 3.394531 16.347656 L 26.605469 16.347656 L 26.605469 10.570312 C 26.605469 9.152344 25.449219 8.003906 24.027344 8.003906 Z M 24.027344 8.003906 " fill-opacity="1" fill-rule="nonzero"/></g><g clip-path="url(#id2)"><path fill="rgb(86.268616%, 7.839966%, 23.529053%)" d="M 3.394531 22.128906 C 3.394531 23.546875 4.550781 24.695312 5.972656 24.695312 L 24.027344 24.695312 C 25.449219 24.695312 26.605469 23.546875 26.605469 22.128906 L 26.605469 16.347656 L 3.394531 16.347656 Z M 3.394531 22.128906 " fill-opacity="1" fill-rule="nonzero"/></g></svg>  